<?xml version="1.0" encoding="UTF-8"?>
<svg id="Warstwa_2" data-name="Warstwa 2" xmlns="http://www.w3.org/2000/svg" viewBox="0 0 581.1 170">
  <defs>
    <style>
      .cls-1 {
        fill: #fff;
      }

      .cls-1, .cls-2 {
        stroke-width: 0px;
      }

      .cls-2 {
        fill: #1d1d1b;
      }
    </style>
  </defs>
  <g>
    <path class="cls-1" d="M201.41,15.71h19.01v8.06h-4.69v12.92l14.21-12.39v-8.58h15.15v8.64h-3.31l-14.79,12.71,14.18,14.36h3.6v8.7h-14.74v-8.7l-14.3-14.3v14.97h4.69v8.03h-19.01v-8.03h4.6v-28.33h-4.6v-8.06Z"/>
    <path class="cls-1" d="M269.32,60.91c-2.01,0-3.94-.27-5.77-.82-1.84-.55-3.55-1.32-5.14-2.31-1.59-1-3.04-2.19-4.34-3.59-1.3-1.4-2.41-2.95-3.33-4.66-.92-1.71-1.63-3.54-2.14-5.49-.51-1.95-.76-3.99-.76-6.12s.25-4.17.76-6.14c.51-1.96,1.22-3.8,2.14-5.51.92-1.71,2.03-3.26,3.33-4.66,1.3-1.4,2.74-2.59,4.34-3.59,1.59-1,3.31-1.77,5.14-2.31,1.84-.55,3.76-.82,5.77-.82s3.94.27,5.79.82c1.85.55,3.56,1.32,5.16,2.31,1.59,1,3.04,2.19,4.34,3.59,1.3,1.4,2.41,2.95,3.34,4.66.93,1.71,1.65,3.54,2.15,5.51.51,1.96.76,4.01.76,6.14s-.25,4.15-.76,6.11c-.51,1.96-1.23,3.8-2.15,5.51-.93,1.71-2.04,3.26-3.34,4.66-1.3,1.4-2.74,2.59-4.34,3.59-1.59,1-3.31,1.77-5.16,2.31s-3.77.82-5.79.82ZM269.32,51.71c1.7,0,3.26-.37,4.67-1.1,1.42-.73,2.63-1.73,3.65-2.99,1.02-1.26,1.8-2.72,2.36-4.39s.83-3.44.83-5.32-.28-3.68-.85-5.36c-.57-1.68-1.36-3.15-2.39-4.41s-2.24-2.26-3.65-2.99-2.95-1.1-4.63-1.1-3.22.37-4.63,1.1-2.62,1.73-3.63,2.99c-1.02,1.26-1.81,2.73-2.39,4.41-.58,1.68-.86,3.47-.86,5.36s.29,3.65.86,5.32c.58,1.67,1.37,3.13,2.39,4.39,1.02,1.26,2.23,2.26,3.63,2.99s2.95,1.1,4.63,1.1Z"/>
    <path class="cls-1" d="M322.91,15.71h16.88v8.06h-3.6v36.36h-9.73l-18.49-28.71v20.68h3.72v8.03h-16.85v-8.03h3.66v-28.33h-3.6v-8.06h13.42l18.37,29.09v-21.04h-3.78v-8.06Z"/>
    <path class="cls-1" d="M344.59,15.71h23.5c2.29,0,4.33.34,6.12,1.03,1.8.68,3.31,1.6,4.54,2.74s2.17,2.47,2.83,3.98c.65,1.51.98,3.09.98,4.73,0,1.5-.16,2.82-.48,3.96-.32,1.13-.79,2.14-1.41,3.02s-1.37,1.66-2.27,2.33-1.92,1.28-3.08,1.83c1,.51,1.88,1.28,2.64,2.33.76,1.04,1.34,2.4,1.73,4.06l1.49,5.77h3.66l.06,8.64h-12.89l-1.76-10.55c-.18-1.25-.44-2.33-.81-3.24-.36-.91-.84-1.65-1.45-2.23-.61-.58-1.34-1-2.21-1.27-.87-.27-1.9-.41-3.09-.41h-3.78v9.67h4.07v8.03h-18.4v-8.03h4.6v-28.33h-4.6v-8.06ZM358.91,23.76v10.75h5.83c1.11,0,2.11-.1,3-.31.89-.21,1.65-.53,2.29-.97.63-.44,1.12-.99,1.46-1.66.34-.66.51-1.45.51-2.37,0-1.72-.62-3.06-1.85-4.01-1.23-.96-3.04-1.44-5.42-1.44h-5.83Z"/>
    <path class="cls-1" d="M412.26,52.09h4.42l-1.99-6.39h-13.65l-1.99,6.39h4.69v8.03h-16.85v-8.03h3.31l12.1-36.39h11.75l11.84,36.39h3.22v8.03h-16.85v-8.03ZM403.36,38.21h8.96l-4.51-14.44-4.45,14.44Z"/>
    <path class="cls-1" d="M432.19,15.71h17.05c2.03,0,3.98.26,5.84.79s3.6,1.27,5.21,2.23c1.61.96,3.08,2.1,4.39,3.44,1.32,1.34,2.45,2.83,3.38,4.47s1.66,3.41,2.17,5.3c.51,1.89.76,3.87.76,5.92s-.25,4.02-.76,5.92c-.51,1.89-1.23,3.67-2.17,5.32-.94,1.65-2.07,3.15-3.38,4.51-1.32,1.36-2.78,2.52-4.39,3.49s-3.35,1.71-5.21,2.24-3.81.79-5.84.79h-17.05v-8.03h3.54v-28.33h-3.54v-8.06ZM445.46,23.76v28.33h3.72c1.58,0,3.08-.37,4.48-1.11,1.41-.74,2.63-1.75,3.66-3.03,1.04-1.28,1.86-2.78,2.46-4.51s.91-3.59.91-5.58-.3-3.82-.91-5.54c-.61-1.72-1.43-3.21-2.46-4.48-1.04-1.27-2.26-2.27-3.66-2.99-1.41-.72-2.9-1.08-4.48-1.08h-3.72Z"/>
    <path class="cls-1" d="M508.06,24.9l-22.12,26.51h12.54v-6.88h9.52v15.59h-33.72v-9.17l21.59-26.54h-11.98v7.03h-9.55v-15.73h33.72v9.2Z"/>
    <path class="cls-1" d="M513.6,15.71h19.01v8.06h-4.69v12.92l14.21-12.39v-8.58h15.15v8.64h-3.31l-14.79,12.71,14.18,14.36h3.6v8.7h-14.74v-8.7l-14.3-14.3v14.97h4.69v8.03h-19.01v-8.03h4.6v-28.33h-4.6v-8.06Z"/>
    <path class="cls-1" d="M562.09,15.71h19.01v8.03h-4.69v28.36h4.69v8.03h-19.01v-8.03h4.6v-28.36h-4.6v-8.03Z"/>
  </g>
  <g>
    <path class="cls-1" d="M201.41,139.79h7.23v-49.58h-7.23v-14.1h31.99l22.92,56.09,21.28-56.09h32.45v14.1h-7.23v49.58h7.13v14.05h-29.07v-14.05h5.33v-44.71l-23.28,57.83h-14.41l-23.69-56.29v43.17h5.79v14.05h-29.22v-14.05Z"/>
    <path class="cls-1" d="M321.64,76.11h61.83v26.51h-16.71v-11.02h-19.94v15.33h15.43v14.87h-15.43v18h19.94v-13.79h16.71v27.84h-61.83v-14.05h8.15v-48.19h-8.15v-15.48Z"/>
    <path class="cls-1" d="M390.8,76.11h29.84c3.55,0,6.96.46,10.23,1.38,3.26.92,6.31,2.22,9.13,3.9,2.82,1.68,5.38,3.68,7.69,6.02,2.31,2.34,4.28,4.95,5.92,7.82s2.9,5.96,3.79,9.28,1.33,6.77,1.33,10.36-.45,7.04-1.33,10.36-2.15,6.42-3.79,9.31-3.62,5.52-5.92,7.9c-2.31,2.38-4.87,4.41-7.69,6.1-2.82,1.69-5.86,3-9.13,3.92-3.26.92-6.67,1.38-10.23,1.38h-29.84v-14.05h6.2v-49.58h-6.2v-14.1ZM414.03,90.21v49.58h6.51c2.77,0,5.38-.65,7.84-1.95s4.6-3.07,6.41-5.31c1.81-2.24,3.25-4.87,4.31-7.9,1.06-3.02,1.59-6.28,1.59-9.77s-.53-6.68-1.59-9.69c-1.06-3.01-2.5-5.62-4.31-7.84-1.81-2.22-3.95-3.96-6.41-5.23s-5.08-1.9-7.84-1.9h-6.51Z"/>
    <path class="cls-1" d="M464.17,76.11h33.27v14.05h-8.2v49.63h8.2v14.05h-33.27v-14.05h8.05v-49.63h-8.05v-14.05Z"/>
    <path class="cls-1" d="M548.97,139.79h7.74l-3.49-11.18h-23.89l-3.49,11.18h8.2v14.05h-29.48v-14.05h5.79l21.17-63.68h20.56l20.71,63.68h5.64v14.05h-29.48v-14.05ZM533.38,115.49h15.69l-7.9-25.28-7.79,25.28Z"/>
  </g>
  <rect class="cls-1" width="170" height="170"/>
  <path class="cls-2" d="M42.22,42.04h36.73v15.56h-9.05v24.96l27.45-23.94v-16.58h29.26v16.69h-6.4l-28.58,24.56,27.39,27.73h6.96v16.81h-28.46v-16.81l-27.62-27.62v28.92h9.05v15.51h-36.73v-15.51h8.88v-54.72h-8.88v-15.56Z"/>
</svg>